<svg id="visual" viewBox="0 0 1024 800" width="1024" height="800" xmlns="http://www.w3.org/2000/svg" xmlns:xlink="http://www.w3.org/1999/xlink" version="1.1"><path d="M0 597L24.3 605.5C48.7 614 97.3 631 146.2 616.3C195 601.7 244 555.3 292.8 543.2C341.7 531 390.3 553 439 572.5C487.7 592 536.3 609 585 616.2C633.7 623.3 682.3 620.7 731.2 610C780 599.3 829 580.7 877.8 564.5C926.7 548.3 975.3 534.7 999.7 527.8L1024 521L1024 801L999.7 801C975.3 801 926.7 801 877.8 801C829 801 780 801 731.2 801C682.3 801 633.7 801 585 801C536.3 801 487.7 801 439 801C390.3 801 341.7 801 292.8 801C244 801 195 801 146.2 801C97.3 801 48.7 801 24.3 801L0 801Z" fill="#8ec9e6" stroke-linecap="round" stroke-linejoin="miter"></path></svg>